<svg width="20" height="22" viewBox="0 0 20 22" fill="none" xmlns="http://www.w3.org/2000/svg">
<path d="M3.59961 1.05H5.54961L8.92461 10.05H7.04961L6.29961 7.9H2.84961L2.09961 10.05H0.224609L3.59961 1.05ZM3.72461 11.1C4.42461 11.1 5.01628 11.3417 5.49961 11.825C5.98294 12.3083 6.22461 12.9 6.22461 13.6C6.22461 13.9333 6.16211 14.2542 6.03711 14.5625C5.91211 14.8708 5.73294 15.1417 5.49961 15.375L5.12461 15.725L5.82461 16.425L7.24961 15.025L8.67461 16.45L7.27461 17.85L8.67461 19.275L7.24961 20.675L5.84961 19.275L4.79961 20.325C4.54961 20.575 4.26628 20.7625 3.94961 20.8875C3.63294 21.0125 3.29961 21.075 2.94961 21.075C2.24961 21.075 1.66628 20.8292 1.19961 20.3375C0.732943 19.8458 0.499609 19.25 0.499609 18.55C0.499609 18.2167 0.566276 17.8958 0.699609 17.5875C0.832943 17.2792 1.01628 17.0083 1.24961 16.775L2.29961 15.725L1.94961 15.375C1.71628 15.1417 1.53294 14.875 1.39961 14.575C1.26628 14.275 1.19961 13.9583 1.19961 13.625C1.19961 12.925 1.44544 12.3292 1.93711 11.8375C2.42878 11.3458 3.02461 11.1 3.72461 11.1ZM3.72461 17.15L2.64961 18.2C2.59961 18.25 2.56628 18.3042 2.54961 18.3625C2.53294 18.4208 2.52461 18.4833 2.52461 18.55C2.52461 18.6833 2.57044 18.8 2.66211 18.9C2.75378 19 2.86628 19.05 2.99961 19.05C3.06628 19.05 3.12878 19.0375 3.18711 19.0125C3.24544 18.9875 3.29961 18.95 3.34961 18.9L4.42461 17.85L3.72461 17.15ZM3.69961 13.1C3.56628 13.1 3.45378 13.15 3.36211 13.25C3.27044 13.35 3.22461 13.4667 3.22461 13.6C3.22461 13.6667 3.23294 13.7292 3.24961 13.7875C3.26628 13.8458 3.29961 13.9 3.34961 13.95L3.72461 14.3L4.04961 13.975C4.09961 13.925 4.13711 13.8708 4.16211 13.8125C4.18711 13.7542 4.19961 13.6917 4.19961 13.625C4.19961 13.4917 4.14961 13.3708 4.04961 13.2625C3.94961 13.1542 3.83294 13.1 3.69961 13.1ZM4.52461 3L3.37461 6.35H5.77461L4.62461 3H4.52461ZM15.4746 0.375C15.6079 0.591667 15.7204 0.816667 15.8121 1.05C15.9038 1.28333 15.9829 1.51667 16.0496 1.75L14.9746 2.075L19.9996 2.05V4.075H18.3246C18.1413 4.625 17.9038 5.14583 17.6121 5.6375C17.3204 6.12917 16.9829 6.58333 16.5996 7C17.0496 7.26667 17.5163 7.4875 17.9996 7.6625C18.4829 7.8375 18.9829 7.99167 19.4996 8.125L19.0246 10.05C18.3079 9.86667 17.6121 9.64167 16.9371 9.375C16.2621 9.10833 15.6163 8.76667 14.9996 8.35C14.3829 8.75 13.7371 9.0875 13.0621 9.3625C12.3871 9.6375 11.6913 9.86667 10.9746 10.05L10.5246 8.125C11.0246 7.99167 11.5163 7.8375 11.9996 7.6625C12.4829 7.4875 12.9496 7.26667 13.3996 7C13.0163 6.58333 12.6788 6.12917 12.3871 5.6375C12.0954 5.14583 11.8663 4.625 11.6996 4.075H9.99961V2.075H14.3996C14.3496 1.85833 14.2829 1.64583 14.1996 1.4375C14.1163 1.22917 14.0329 1.025 13.9496 0.825L15.4746 0.375ZM18.0746 11.475L19.4996 12.875L11.7246 20.65L10.2996 19.25L18.0746 11.475ZM12.4996 12.05C12.9163 12.05 13.2704 12.1958 13.5621 12.4875C13.8538 12.7792 13.9996 13.1333 13.9996 13.55C13.9996 13.9667 13.8538 14.3208 13.5621 14.6125C13.2704 14.9042 12.9163 15.05 12.4996 15.05C12.0829 15.05 11.7288 14.9042 11.4371 14.6125C11.1454 14.3208 10.9996 13.9667 10.9996 13.55C10.9996 13.1333 11.1454 12.7792 11.4371 12.4875C11.7288 12.1958 12.0829 12.05 12.4996 12.05ZM13.8246 4.075C13.9579 4.39167 14.1246 4.69167 14.3246 4.975C14.5246 5.25833 14.7496 5.525 14.9996 5.775C15.2496 5.525 15.4746 5.25833 15.6746 4.975C15.8746 4.69167 16.0496 4.39167 16.1996 4.075H13.8246ZM17.4996 17.05C17.9163 17.05 18.2704 17.1958 18.5621 17.4875C18.8538 17.7792 18.9996 18.1333 18.9996 18.55C18.9996 18.9667 18.8538 19.3208 18.5621 19.6125C18.2704 19.9042 17.9163 20.05 17.4996 20.05C17.0829 20.05 16.7288 19.9042 16.4371 19.6125C16.1454 19.3208 15.9996 18.9667 15.9996 18.55C15.9996 18.1333 16.1454 17.7792 16.4371 17.4875C16.7288 17.1958 17.0829 17.05 17.4996 17.05Z" fill="#1A1230"/>
</svg>
