<svg width="20" height="21" viewBox="0 0 20 21" fill="none" xmlns="http://www.w3.org/2000/svg">
<path d="M3.375 0.675H5.325L8.7 9.675H6.825L6.075 7.525H2.625L1.875 9.675H0L3.375 0.675ZM3.5 10.725C4.2 10.725 4.79167 10.9667 5.275 11.45C5.75833 11.9333 6 12.525 6 13.225C6 13.5583 5.9375 13.8792 5.8125 14.1875C5.6875 14.4958 5.50833 14.7667 5.275 15L4.9 15.35L5.6 16.05L7.025 14.65L8.45 16.075L7.05 17.475L8.45 18.9L7.025 20.3L5.625 18.9L4.575 19.95C4.325 20.2 4.04167 20.3875 3.725 20.5125C3.40833 20.6375 3.075 20.7 2.725 20.7C2.025 20.7 1.44167 20.4542 0.975 19.9625C0.508333 19.4708 0.275 18.875 0.275 18.175C0.275 17.8417 0.341667 17.5208 0.475 17.2125C0.608333 16.9042 0.791667 16.6333 1.025 16.4L2.075 15.35L1.725 15C1.49167 14.7667 1.30833 14.5 1.175 14.2C1.04167 13.9 0.975 13.5833 0.975 13.25C0.975 12.55 1.22083 11.9542 1.7125 11.4625C2.20417 10.9708 2.8 10.725 3.5 10.725ZM3.5 16.775L2.425 17.825C2.375 17.875 2.34167 17.9292 2.325 17.9875C2.30833 18.0458 2.3 18.1083 2.3 18.175C2.3 18.3083 2.34583 18.425 2.4375 18.525C2.52917 18.625 2.64167 18.675 2.775 18.675C2.84167 18.675 2.90417 18.6625 2.9625 18.6375C3.02083 18.6125 3.075 18.575 3.125 18.525L4.2 17.475L3.5 16.775ZM3.475 12.725C3.34167 12.725 3.22917 12.775 3.1375 12.875C3.04583 12.975 3 13.0917 3 13.225C3 13.2917 3.00833 13.3542 3.025 13.4125C3.04167 13.4708 3.075 13.525 3.125 13.575L3.5 13.925L3.825 13.6C3.875 13.55 3.9125 13.4958 3.9375 13.4375C3.9625 13.3792 3.975 13.3167 3.975 13.25C3.975 13.1167 3.925 12.9958 3.825 12.8875C3.725 12.7792 3.60833 12.725 3.475 12.725ZM4.3 2.625L3.15 5.975H5.55L4.4 2.625H4.3ZM15.25 0C15.3833 0.216667 15.4958 0.441667 15.5875 0.675C15.6792 0.908333 15.7583 1.14167 15.825 1.375L14.75 1.7L19.775 1.675V3.7H18.1C17.9167 4.25 17.6792 4.77083 17.3875 5.2625C17.0958 5.75417 16.7583 6.20833 16.375 6.625C16.825 6.89167 17.2917 7.1125 17.775 7.2875C18.2583 7.4625 18.7583 7.61667 19.275 7.75L18.8 9.675C18.0833 9.49167 17.3875 9.26667 16.7125 9C16.0375 8.73333 15.3917 8.39167 14.775 7.975C14.1583 8.375 13.5125 8.7125 12.8375 8.9875C12.1625 9.2625 11.4667 9.49167 10.75 9.675L10.3 7.75C10.8 7.61667 11.2917 7.4625 11.775 7.2875C12.2583 7.1125 12.725 6.89167 13.175 6.625C12.7917 6.20833 12.4542 5.75417 12.1625 5.2625C11.8708 4.77083 11.6417 4.25 11.475 3.7H9.775V1.7H14.175C14.125 1.48333 14.0583 1.27083 13.975 1.0625C13.8917 0.854167 13.8083 0.65 13.725 0.45L15.25 0ZM17.85 11.1L19.275 12.5L11.5 20.275L10.075 18.875L17.85 11.1ZM12.275 11.675C12.6917 11.675 13.0458 11.8208 13.3375 12.1125C13.6292 12.4042 13.775 12.7583 13.775 13.175C13.775 13.5917 13.6292 13.9458 13.3375 14.2375C13.0458 14.5292 12.6917 14.675 12.275 14.675C11.8583 14.675 11.5042 14.5292 11.2125 14.2375C10.9208 13.9458 10.775 13.5917 10.775 13.175C10.775 12.7583 10.9208 12.4042 11.2125 12.1125C11.5042 11.8208 11.8583 11.675 12.275 11.675ZM13.6 3.7C13.7333 4.01667 13.9 4.31667 14.1 4.6C14.3 4.88333 14.525 5.15 14.775 5.4C15.025 5.15 15.25 4.88333 15.45 4.6C15.65 4.31667 15.825 4.01667 15.975 3.7H13.6ZM17.275 16.675C17.6917 16.675 18.0458 16.8208 18.3375 17.1125C18.6292 17.4042 18.775 17.7583 18.775 18.175C18.775 18.5917 18.6292 18.9458 18.3375 19.2375C18.0458 19.5292 17.6917 19.675 17.275 19.675C16.8583 19.675 16.5042 19.5292 16.2125 19.2375C15.9208 18.9458 15.775 18.5917 15.775 18.175C15.775 17.7583 15.9208 17.4042 16.2125 17.1125C16.5042 16.8208 16.8583 16.675 17.275 16.675Z" fill="white"/>
</svg>
