<svg width="167" height="167" viewBox="0 0 167 167" fill="none" xmlns="http://www.w3.org/2000/svg">
<path d="M160.913 166.757L131.682 137.526C125.229 142.718 118.069 146.762 110.2 149.657C102.331 152.552 93.9313 154 84.9997 154C74.6247 154 64.8747 152.031 55.7497 148.094C46.6247 144.156 38.6872 138.813 31.9372 132.063C25.1872 125.313 19.8434 117.375 15.9059 108.25C11.9684 99.1251 9.99966 89.3751 9.99966 79.0001C9.99966 70.0685 11.4473 61.6683 14.3426 53.7997C17.2379 45.9312 21.2817 38.7705 26.474 32.3174L0.720703 6.56428L6.66633 0.618652L166.859 160.811L160.913 166.757ZM84.9997 145.667C92.7454 145.667 100.045 144.406 106.899 141.885C113.752 139.363 120 135.896 125.641 131.484L89.3426 95.1862L73.0126 111.564L43.3651 81.9168L49.2626 76.0193L73.0126 99.7693L83.4451 89.2887L32.5157 38.3591C28.1033 44.0002 24.6365 50.2476 22.1151 57.1012C19.5937 63.9548 18.333 71.2544 18.333 79.0001C18.333 97.4724 24.826 113.202 37.8122 126.188C50.7983 139.174 66.5274 145.667 84.9997 145.667ZM148.541 119.064L142.339 112.862C145.363 107.894 147.673 102.581 149.27 96.9214C150.868 91.2621 151.666 85.2883 151.666 79.0001C151.666 60.5279 145.173 44.7987 132.187 31.8126C119.201 18.8265 103.472 12.3334 84.9997 12.3334C78.7497 12.3334 72.7854 13.1321 67.1069 14.7293C61.4286 16.3265 56.1055 18.6369 51.1376 21.6603L44.9355 15.4584C50.763 11.8153 57.0458 8.9947 63.7838 6.99678C70.5219 4.999 77.5938 4.00011 84.9997 4.00011C95.3747 4.00011 105.125 5.96886 114.25 9.90636C123.375 13.8439 131.312 19.1876 138.062 25.9376C144.812 32.6876 150.156 40.6251 154.093 49.7501C158.031 58.8751 160 68.6251 160 79.0001C160 86.406 159.001 93.4779 157.003 100.216C155.005 106.954 152.185 113.237 148.541 119.064ZM107.051 77.5257L101.153 71.6282L120.416 52.3655L126.314 58.263L107.051 77.5257Z" fill="#1C1B1F"/>
</svg>
