<svg width="150" height="150" viewBox="0 0 150 150" fill="none" xmlns="http://www.w3.org/2000/svg">
<path d="M75 150C64.625 150 54.875 148.032 45.75 144.096C36.625 140.16 28.6875 134.818 21.9375 128.071C15.1875 121.323 9.84375 113.389 5.90625 104.267C1.96875 95.1454 0 85.399 0 75.0279C0 64.6567 1.96799 54.906 5.90396 45.7758C9.84007 36.6457 15.1819 28.7037 21.9294 21.9498C28.6769 15.196 36.6114 9.84931 45.7329 5.90958C54.8546 1.96986 64.601 0 74.9721 0C85.3433 0 95.094 1.96875 104.224 5.90625C113.354 9.84375 121.296 15.1875 128.05 21.9375C134.804 28.6875 140.151 36.625 144.09 45.75C148.03 54.875 150 64.625 150 75C150 78.75 149.738 82.4305 149.215 86.0417C148.691 89.6528 147.89 93.1944 146.811 96.6667C145.721 95.7265 144.559 94.8932 143.325 94.1667C142.091 93.4401 140.748 92.906 139.295 92.5642C140.139 89.7329 140.745 86.8669 141.114 83.9663C141.482 81.0657 141.667 78.0769 141.667 75C141.667 56.3889 135.208 40.625 122.292 27.7083C109.375 14.7917 93.6111 8.33333 75 8.33333C56.3889 8.33333 40.625 14.7917 27.7083 27.7083C14.7917 40.625 8.33333 56.3889 8.33333 75C8.33333 93.6111 14.7917 109.375 27.7083 122.292C40.625 135.208 56.3889 141.667 75 141.667C82.5107 141.667 89.6269 140.513 96.3487 138.204C103.071 135.896 109.25 132.664 114.888 128.51C115.807 129.589 116.787 130.604 117.829 131.555C118.87 132.505 120.032 133.307 121.314 133.958C114.872 139.012 107.752 142.949 99.9556 145.769C92.159 148.59 83.8404 150 75 150ZM133.022 120.833C131.274 120.833 129.794 120.23 128.582 119.024C127.369 117.817 126.763 116.34 126.763 114.592C126.763 112.845 127.366 111.365 128.573 110.152C129.779 108.94 131.256 108.333 133.004 108.333C134.751 108.333 136.231 108.937 137.444 110.143C138.657 111.35 139.263 112.827 139.263 114.574C139.263 116.322 138.66 117.802 137.453 119.014C136.246 120.227 134.769 120.833 133.022 120.833ZM105.385 111.282L70.8333 76.7275V33.3333H79.1667V73.2692L111.282 105.385L105.385 111.282Z" fill="#1C1B1F"/>
</svg>
