<svg width="21" height="21" viewBox="0 0 21 21" fill="none" xmlns="http://www.w3.org/2000/svg">
<path d="M11.925 9.05L7.675 4.8L9.1 3.4L11.925 6.225L17.6 0.574997L19 1.975L11.925 9.05ZM13 20.5L6 18.55V20H0V9H7.95L14.15 11.3C14.7 11.5 15.1458 11.85 15.4875 12.35C15.8292 12.85 16 13.4 16 14H18C18.8333 14 19.5417 14.275 20.125 14.825C20.7083 15.375 21 16.1 21 17V18L13 20.5ZM2 18H4V11H2V18ZM12.95 18.4L18.9 16.55C18.85 16.3667 18.7375 16.2292 18.5625 16.1375C18.3875 16.0458 18.2 16 18 16H13.2C12.6833 16 12.2167 15.9667 11.8 15.9C11.3833 15.8333 10.9333 15.7167 10.45 15.55L8.725 14.95L9.3 13.05L11.3 13.7C11.6 13.8 11.95 13.875 12.35 13.925C12.75 13.975 13.3 14 14 14C14 13.8167 13.9458 13.6417 13.8375 13.475C13.7292 13.3083 13.6 13.2 13.45 13.15L7.6 11H6V16.5L12.95 18.4Z" fill="#1C1B1F"/>
</svg>
