<svg width="22" height="21" viewBox="0 0 22 21" fill="none" xmlns="http://www.w3.org/2000/svg">
<path d="M2 21C1.45 21 0.979167 20.8042 0.5875 20.4125C0.195833 20.0208 0 19.55 0 19V8H2V19H19V21H2ZM6 17C5.45 17 4.97917 16.8042 4.5875 16.4125C4.19583 16.0208 4 15.55 4 15V4H9V2C9 1.45 9.19583 0.979167 9.5875 0.5875C9.97917 0.195833 10.45 0 11 0H15C15.55 0 16.0208 0.195833 16.4125 0.5875C16.8042 0.979167 17 1.45 17 2V4H22V15C22 15.55 21.8042 16.0208 21.4125 16.4125C21.0208 16.8042 20.55 17 20 17H6ZM6 15H20V6H6V15ZM11 4H15V2H11V4Z" fill="#1C1B1F"/>
</svg>
